<?xml version="1.0" standalone="no"?>
<!DOCTYPE svg PUBLIC "-//W3C//DTD SVG 20010904//EN"
 "http://www.w3.org/TR/2001/REC-SVG-20010904/DTD/svg10.dtd">
<svg version="1.0" xmlns="http://www.w3.org/2000/svg"
 width="568.000000pt" height="568.000000pt" viewBox="0 0 568.000000 568.000000"
 preserveAspectRatio="xMidYMid meet">
<metadata>
Created by potrace 1.14, written by Peter Selinger 2001-2017
</metadata>
<g transform="translate(0.000000,568.000000) scale(0.100000,-0.100000)"
fill="#000000" stroke="none">
<path d="M1901 4549 c-26 -8 -144 -120 -472 -449 l-437 -439 -4 137 c-3 122
-5 140 -25 168 -62 87 -174 104 -253 38 -62 -53 -63 -59 -64 -390 l-1 -301
-228 -228 c-294 -295 -304 -306 -313 -360 -11 -77 35 -160 103 -186 41 -16
106 -13 143 6 18 9 90 75 160 146 71 71 130 129 132 129 2 0 3 -345 3 -767 -1
-423 2 -784 7 -804 11 -50 43 -88 92 -110 39 -18 97 -19 1354 -19 1409 0 1350
-2 1405 48 81 73 65 214 -31 274 l-37 23 -1222 3 -1223 2 0 851 0 851 485 486
485 486 198 -196 c108 -108 350 -348 537 -533 187 -185 434 -429 548 -543
l208 -207 239 0 c132 -1 240 2 240 4 0 3 -240 243 -532 534 -293 290 -713 707
-933 926 -220 219 -410 404 -423 410 -33 17 -101 22 -141 10z"/>
<path d="M1653 3412 l-32 -3 0 -145 0 -144 27 -1 c108 -3 254 0 260 5 3 4 6
69 6 146 1 118 -1 140 -14 141 -69 3 -221 3 -247 1z"/>
<path d="M2054 3265 l0 -145 148 0 148 0 0 145 0 145 -148 0 -148 0 0 -145z"/>
<path d="M1622 2857 l-1 -148 147 3 146 3 1 138 c0 77 -2 142 -5 146 -3 4 -69
7 -147 7 l-141 -1 0 -148z"/>
<path d="M2056 2990 c-3 -13 -1 -255 3 -271 0 -4 66 -6 146 -6 l146 1 -3 145
-3 146 -143 0 c-119 0 -143 -2 -146 -15z"/>
<path d="M5274 2559 c-11 -3 -46 -45 -78 -92 -50 -73 -57 -87 -47 -106 11 -20
31 -26 76 -21 18 1 195 166 195 180 0 4 -6 15 -14 25 -14 20 -95 28 -132 14z"/>
<path d="M3859 2501 l-24 -19 -1 -284 c0 -155 3 -301 8 -323 27 -121 130 -231
243 -260 158 -39 316 33 393 180 24 44 27 62 27 145 0 76 -4 104 -21 140 -32
68 -97 135 -162 167 -50 25 -68 28 -152 28 -90 0 -113 -6 -182 -43 -3 -2 -8
55 -10 127 -3 116 -5 132 -23 145 -28 21 -68 20 -96 -3z m422 -398 c159 -106
86 -352 -105 -354 -196 -3 -270 247 -105 357 41 27 54 31 107 28 48 -1 70 -8
103 -31z"/>
<path d="M4662 2502 c-18 -18 -19 -43 -18 -439 1 -373 3 -421 17 -436 30 -29
63 -31 94 -5 l27 24 0 419 0 419 -22 18 c-29 23 -75 23 -98 0z"/>
<path d="M1463 2264 c-55 -20 -126 -84 -152 -137 -29 -60 -34 -100 -34 -294 0
-141 3 -177 16 -196 30 -46 92 -43 118 4 7 13 10 86 10 200 -1 191 5 225 48
263 22 20 28 22 83 33 37 7 111 -30 129 -65 10 -19 15 -84 19 -229 5 -218 7
-225 61 -238 20 -5 34 0 55 18 l29 25 0 193 c1 199 4 219 44 259 42 43 131 49
177 12 54 -45 58 -61 59 -266 1 -206 7 -230 54 -239 33 -6 69 11 78 37 10 30
11 375 0 416 -14 60 -38 102 -79 141 -63 60 -101 74 -198 74 -91 0 -140 -16
-182 -60 l-22 -23 -35 29 c-20 15 -52 34 -71 42 -47 19 -155 20 -207 1z"/>
<path d="M2587 2256 c-66 -28 -80 -37 -125 -86 -54 -56 -82 -121 -87 -199 -7
-111 27 -202 99 -268 74 -68 123 -90 215 -97 122 -8 243 55 310 164 17 27 29
50 26 50 -2 0 -1 10 4 23 7 17 4 29 -7 44 -46 57 -100 49 -132 -21 -35 -73
-95 -114 -175 -119 -49 -2 -118 19 -132 42 -10 16 3 24 110 71 327 144 344
155 325 213 -13 37 -51 92 -87 125 -88 78 -238 103 -344 58z m218 -138 c50
-23 37 -35 -124 -107 -87 -39 -161 -71 -164 -71 -29 0 29 126 73 158 53 40
151 49 215 20z"/>
<path d="M3161 2254 c-20 -25 -21 -40 -21 -208 0 -209 10 -263 61 -329 128
-167 387 -140 481 51 21 44 23 61 26 252 4 198 3 206 -18 233 -26 32 -67 36
-101 8 -22 -18 -23 -22 -24 -217 -1 -208 -4 -221 -49 -263 -36 -34 -118 -40
-163 -12 -64 40 -68 53 -68 272 -1 195 -2 199 -25 219 -33 28 -74 26 -99 -6z"/>
<path d="M5150 2267 c-149 -52 -230 -158 -236 -308 -4 -91 5 -128 49 -197 119
-189 377 -211 533 -45 35 37 74 112 74 140 -1 28 -32 60 -63 65 -35 7 -59 -13
-90 -72 -33 -64 -98 -102 -171 -102 -54 0 -126 26 -133 49 -3 8 44 35 67 38 3
1 48 21 100 46 52 25 126 58 164 74 121 53 138 86 88 166 -36 56 -93 106 -151
132 -56 25 -180 32 -231 14z m201 -158 l32 -22 -44 -21 c-24 -12 -69 -32 -99
-45 -30 -13 -83 -37 -118 -53 -35 -17 -66 -28 -69 -24 -11 11 8 72 35 110 40
58 95 84 171 80 44 -2 69 -9 92 -25z"/>
</g>
</svg>
